<svg width="56" height="50" viewBox="0 0 56 50" fill="none" xmlns="http://www.w3.org/2000/svg">
<path d="M15.9616 27.98V43.1034H6.71407C6.55111 43.5331 6.28339 43.9177 5.93767 44.2324C5.34926 44.768 4.53561 45.0996 3.63757 45.0996C2.73952 45.0996 1.92645 44.768 1.33804 44.2324C0.749048 43.6968 0.385291 42.9561 0.385291 42.1387C0.385291 41.3213 0.749048 40.5812 1.33804 40.045C1.92645 39.5094 2.73952 39.1783 3.63757 39.1783C4.53561 39.1783 5.34926 39.5094 5.93767 40.045C6.45682 40.5176 6.80079 41.1491 6.87529 41.8521H14.5869V27.9779C13.9665 27.8555 13.4124 27.572 12.9794 27.1779C12.391 26.6423 12.0267 25.9022 12.0267 25.0848C12.0267 24.2673 12.391 23.5267 12.9794 22.9911C13.5678 22.4555 14.3815 22.1239 15.2795 22.1239C16.1776 22.1239 16.9906 22.455 17.5796 22.9911C18.168 23.5267 18.5324 24.2673 18.5324 25.0848C18.5324 25.9022 18.168 26.6423 17.5796 27.1779C17.1443 27.5742 16.5861 27.8587 15.9616 27.98ZM42.8203 13.9209C42.6329 10.5054 40.9427 7.42636 38.305 5.16052C35.4928 2.74528 31.6043 1.25132 27.3056 1.25132C23.0069 1.25132 19.1185 2.74528 16.3062 5.16052C13.6976 7.40146 12.0162 10.4376 11.7974 13.8075L11.8911 13.8069V15.0588C8.97693 15.0588 6.34275 16.0638 4.43899 17.6886C2.54571 19.3049 1.37471 21.5348 1.37471 23.9966C1.37471 26.4579 2.54571 28.6883 4.43899 30.3046C6.34217 31.9294 8.97693 32.9344 11.8911 32.9344V34.1857C8.61783 34.1857 5.65016 33.0499 3.49905 31.2137C1.33688 29.3685 0 26.8166 0 23.9966C0 21.1761 1.33688 18.6247 3.49905 16.7795C5.3219 15.223 7.73143 14.1704 10.4162 13.8848C10.6147 10.1271 12.4684 6.7403 15.3662 4.25143C18.4247 1.62481 22.646 0 27.3056 0C31.9652 0 36.1865 1.62481 39.245 4.25143C42.1399 6.73819 43.993 10.1208 44.1944 13.8748C46.9199 14.1439 49.3667 15.204 51.2123 16.7795C53.3744 18.6247 54.7113 21.1761 54.7113 23.9966C54.7113 26.8166 53.3744 29.3685 51.2123 31.2137C49.0612 33.0499 46.0941 34.1857 42.8203 34.1857V32.9344C45.7344 32.9344 48.3692 31.9294 50.2723 30.3046C52.1656 28.6883 53.3366 26.4579 53.3366 23.9966C53.3366 21.5348 52.1656 19.3044 50.2723 17.6886C48.3692 16.0638 45.7344 15.0588 42.8203 15.0588V13.9209ZM33.7892 38.3884V31.2704H32.7579V38.3884H30.5777L33.2735 42.8491L35.9688 38.3884H33.7892ZM20.8633 31.6571V38.7752H21.8947V31.6571H24.0743L21.379 27.1964L18.6831 31.6571H20.8633ZM29.2367 47.0391C29.2367 46.5671 29.0266 46.1401 28.6867 45.8307C28.3468 45.5213 27.8771 45.33 27.3592 45.33C26.8406 45.33 26.3709 45.5213 26.031 45.8307C25.6911 46.1401 25.481 46.5671 25.481 47.0391C25.481 47.5111 25.6911 47.9387 26.031 48.248C26.3709 48.5569 26.8406 48.7481 27.3592 48.7481C27.8771 48.7481 28.3468 48.5569 28.6867 48.248C29.0266 47.9387 29.2367 47.5111 29.2367 47.0391ZM29.6587 44.946C30.2477 45.4816 30.6114 46.2217 30.6114 47.0391C30.6114 47.8565 30.2477 48.5972 29.6587 49.1328C29.0703 49.6684 28.2572 50 27.3592 50C26.4605 50 25.6475 49.6684 25.059 49.1328C24.4706 48.5972 24.1063 47.8565 24.1063 47.0391C24.1063 46.2217 24.4701 45.4816 25.059 44.946C25.4932 44.5508 26.049 44.2668 26.6712 44.1449V23.1225C26.049 23.0006 25.4932 22.7167 25.059 22.3215C24.4706 21.7859 24.1063 21.0458 24.1063 20.2283C24.1063 19.4109 24.4701 18.6703 25.059 18.1347C25.6475 17.5991 26.4605 17.2674 27.3592 17.2674C28.2572 17.2674 29.0703 17.5985 29.6587 18.1347C30.2477 18.6703 30.6114 19.4109 30.6114 20.2283C30.6114 21.0458 30.2477 21.7859 29.6587 22.3215C29.2245 22.7167 28.6687 23.0006 28.0465 23.1225V44.1449C28.6687 44.2668 29.2245 44.5508 29.6587 44.946ZM29.2367 20.2283C29.2367 19.7563 29.0266 19.3288 28.6867 19.0194C28.3468 18.71 27.8771 18.5188 27.3592 18.5188C26.8406 18.5188 26.3709 18.71 26.031 19.0194C25.6911 19.3288 25.481 19.7563 25.481 20.2283C25.481 20.7004 25.6911 21.1274 26.031 21.4367C26.3709 21.7461 26.8406 21.9374 27.3592 21.9374C27.8771 21.9374 28.3468 21.7461 28.6867 21.4367C29.0266 21.1274 29.2367 20.7004 29.2367 20.2283ZM42.0671 25.0848C42.0671 24.6127 41.857 24.1852 41.5171 23.8758C41.1778 23.5664 40.7081 23.3752 40.1896 23.3752C39.671 23.3752 39.2013 23.5664 38.8614 23.8758C38.5221 24.1852 38.312 24.6127 38.312 25.0848C38.312 25.5568 38.5221 25.9838 38.8614 26.2932C39.2013 26.6026 39.671 26.7938 40.1896 26.7938C40.7081 26.7938 41.1778 26.6026 41.5171 26.2932C41.857 25.9838 42.0671 25.5568 42.0671 25.0848ZM42.4897 22.9911C43.0781 23.5267 43.4424 24.2673 43.4424 25.0848C43.4424 25.9022 43.0781 26.6423 42.4897 27.1779C42.0567 27.572 41.502 27.8555 40.8822 27.9779V41.8521H48.5938C48.6677 41.1491 49.0123 40.5176 49.5314 40.045C50.1198 39.5094 50.9329 39.1783 51.831 39.1783C52.729 39.1783 53.5426 39.5094 54.1311 40.045C54.7201 40.5812 55.0838 41.3213 55.0838 42.1387C55.0838 42.9561 54.7195 43.6968 54.1311 44.2324C53.5426 44.768 52.729 45.0996 51.831 45.0996C50.9329 45.0996 50.1198 44.768 49.5314 44.2324C49.1857 43.9177 48.918 43.5331 48.755 43.1034H39.5069V27.98C38.883 27.8587 38.3248 27.5742 37.8895 27.1779C37.3011 26.6423 36.9367 25.9022 36.9367 25.0848C36.9367 24.2673 37.3011 23.5267 37.8895 22.9911C38.4779 22.4555 39.2915 22.1239 40.1896 22.1239C41.0876 22.1239 41.9007 22.455 42.4897 22.9911ZM53.7091 42.1387C53.7091 41.6667 53.499 41.2397 53.1591 40.9303C52.8192 40.6209 52.3495 40.4296 51.831 40.4296C51.3124 40.4296 50.8433 40.6209 50.5034 40.9303C50.1635 41.2397 49.9534 41.6667 49.9534 42.1387C49.9534 42.6107 50.1635 43.0382 50.5034 43.3476C50.8433 43.6565 51.3124 43.8477 51.831 43.8477C52.3495 43.8477 52.8192 43.6565 53.1591 43.3476C53.499 43.0382 53.7091 42.6107 53.7091 42.1387ZM13.9514 23.8758C13.6121 24.1852 13.402 24.6127 13.402 25.0848C13.402 25.5568 13.6121 25.9838 13.9514 26.2932C14.2913 26.6026 14.761 26.7938 15.2795 26.7938C15.7981 26.7938 16.2678 26.6026 16.6071 26.2932C16.947 25.9838 17.1571 25.5568 17.1571 25.0848C17.1571 24.6127 16.947 24.1852 16.6071 23.8758C16.2678 23.5664 15.7981 23.3752 15.2795 23.3752C14.761 23.3752 14.2913 23.5664 13.9514 23.8758ZM2.31 40.9303C1.97011 41.2397 1.76 41.6667 1.76 42.1387C1.76 42.6107 1.97011 43.0382 2.31 43.3476C2.64931 43.6565 3.11899 43.8477 3.63757 43.8477C4.15614 43.8477 4.62582 43.6565 4.96571 43.3476C5.30503 43.0382 5.51571 42.6107 5.51571 42.1387C5.51571 41.6667 5.30503 41.2397 4.96571 40.9303C4.62582 40.6209 4.15614 40.4296 3.63757 40.4296C3.11899 40.4296 2.64931 40.6209 2.31 40.9303Z" fill="#FFC403"/>
</svg>
