<svg width="51" height="50" viewBox="0 0 51 50" fill="none" xmlns="http://www.w3.org/2000/svg">
<path d="M36.4578 39.2663V17.2716H37.6979V39.2663H36.4578Z" fill="#FFC403"/>
<path d="M10.0122 19.1902L25.0671 8.67258L40.1219 19.1902" stroke="#FFAC12" stroke-width="2.9" stroke-miterlimit="22.9256"/>
<path d="M13.6767 39.2663H12.4365V17.2716H13.6767V39.2663Z" fill="#FFC403"/>
<path d="M14.1343 15.5691V3.56493H9.66187V2.3118H15.3874V15.5691H14.1343Z" fill="#FFC403"/>
<path d="M7.69184 1.2531C7.22084 1.2531 6.79305 1.44323 6.48192 1.75435C6.1708 2.06116 5.98067 2.48895 5.98067 2.96428C5.98067 3.43528 6.1708 3.86307 6.48192 4.1742C6.79305 4.481 7.22084 4.67545 7.69184 4.67545C8.16717 4.67545 8.59496 4.481 8.90177 4.1742C9.21289 3.86307 9.40302 3.43528 9.40302 2.96428C9.40302 2.48895 9.21289 2.06116 8.90177 1.75435C8.59496 1.44323 8.16717 1.2531 7.69184 1.2531ZM5.59609 0.86852C6.13191 0.328377 6.87515 -3.05176e-05 7.69184 -3.05176e-05C8.51286 -3.05176e-05 9.25178 0.328377 9.7876 0.86852C10.3234 1.40434 10.6562 2.14326 10.6562 2.96428C10.6562 3.78097 10.3234 4.52421 9.7876 5.06003C9.25178 5.59585 8.51286 5.92858 7.69184 5.92858C6.87515 5.92858 6.13191 5.59585 5.59609 5.06003C5.06027 4.52421 4.72754 3.78097 4.72754 2.96428C4.72754 2.14326 5.06027 1.40434 5.59609 0.86852Z" fill="#FFC403"/>
<path d="M33.7048 15.1413V7.104H39.426V8.35714H34.958V15.1413H33.7048Z" fill="#FFC403"/>
<path d="M41.3967 4.67984C42.2134 4.67984 42.9566 5.00825 43.4924 5.54839C44.0283 6.08421 44.361 6.82313 44.361 7.64415C44.361 8.46084 44.0283 9.20408 43.4924 9.7399C42.9566 10.2757 42.2134 10.6085 41.3967 10.6085C40.58 10.6085 39.8367 10.2757 39.3009 9.7399C38.7651 9.20408 38.4324 8.46084 38.4324 7.64415C38.4324 6.82313 38.7651 6.08421 39.3009 5.54839C39.8367 5.00825 40.58 4.67984 41.3967 4.67984ZM42.6066 6.43422C42.2955 6.1231 41.8677 5.93297 41.3967 5.93297C40.9257 5.93297 40.4979 6.1231 40.1868 6.43422C39.8756 6.74103 39.6855 7.16882 39.6855 7.64415C39.6855 8.11515 39.8756 8.54294 40.1868 8.85407C40.4979 9.16087 40.9257 9.35532 41.3967 9.35532C41.8677 9.35532 42.2955 9.16087 42.6066 8.85407C42.9177 8.54294 43.1079 8.11515 43.1079 7.64415C43.1079 7.16882 42.9177 6.74103 42.6066 6.43422Z" fill="#FFC403"/>
<path d="M24.4102 9.03125V4.70578H25.6633V9.03125H24.4102Z" fill="#FFC403"/>
<path d="M25.0369 0.855576C25.6592 0.855576 26.2166 1.1062 26.6228 1.51239C27.029 1.91426 27.2796 2.47601 27.2796 3.09393C27.2796 3.71185 27.029 4.2736 26.6228 4.67547C26.2123 5.08166 25.6549 5.33228 25.0369 5.33228C24.4233 5.33228 23.8659 5.08166 23.4597 4.67547H23.4554C23.0492 4.26928 22.7986 3.70753 22.7986 3.09393C22.7986 2.48033 23.0492 1.91858 23.4554 1.51239C23.8616 1.1062 24.419 0.855576 25.0369 0.855576ZM25.737 2.39822C25.5598 2.21674 25.3092 2.10871 25.0369 2.10871C24.7647 2.10871 24.5184 2.21674 24.3412 2.39822C24.1641 2.57539 24.0517 2.8217 24.0517 3.09393C24.0517 3.36616 24.1641 3.61679 24.3412 3.78963V3.79395C24.5184 3.97112 24.7647 4.07915 25.0369 4.07915C25.3135 4.07915 25.5598 3.97112 25.737 3.79395V3.78963C25.9141 3.61247 26.0265 3.36616 26.0265 3.09393C26.0265 2.8217 25.9141 2.57539 25.737 2.39822Z" fill="#FFC403"/>
<path d="M37.0801 23.7231H46.0378V22.47H37.0801V23.7231Z" fill="#FFC403"/>
<path d="M50.0909 23.0966C50.0909 22.4743 49.8403 21.9169 49.4341 21.5107C49.0279 21.1045 48.4705 20.8539 47.8525 20.8539C47.2346 20.8539 46.6729 21.1045 46.2667 21.5107H46.271C45.8648 21.9212 45.6099 22.4786 45.6099 23.0966C45.6099 23.7102 45.8605 24.2676 46.2667 24.6738L46.271 24.6781C46.6772 25.0843 47.2346 25.3349 47.8525 25.3349C48.4661 25.3349 49.0279 25.0843 49.4341 24.6781C49.8403 24.2719 50.0909 23.7145 50.0909 23.0966ZM48.5482 22.3965C48.7254 22.5737 48.8378 22.8243 48.8378 23.0966C48.8378 23.3688 48.7254 23.6151 48.5482 23.7923C48.3711 23.9694 48.1248 24.0818 47.8525 24.0818C47.576 24.0818 47.3297 23.9694 47.1525 23.7923C46.9753 23.6151 46.863 23.3688 46.863 23.0966C46.863 22.82 46.9753 22.5737 47.1525 22.3965C47.334 22.2194 47.5803 22.107 47.8525 22.107C48.1248 22.107 48.3711 22.2194 48.5482 22.3965Z" fill="#FFC403"/>
<path d="M36.5483 39.2534H13.1147V38.0132H36.5483V39.2534Z" fill="#FFC403"/>
<path d="M16.1483 38.778L15.9927 47.6623H10.103V46.4092H14.7655L14.8995 38.7607L16.1483 38.778Z" fill="#FFC403"/>
<path d="M26.696 38.994V42.0707H25.4429V38.994H26.696Z" fill="#FFC403"/>
<path d="M26.0696 44.6677C26.3418 44.6677 26.5881 44.5597 26.7653 44.3825V44.3782C26.9424 44.201 27.0548 43.9547 27.0548 43.6825C27.0548 43.4102 26.9424 43.1639 26.7653 42.9824C26.5881 42.8053 26.3418 42.6973 26.0696 42.6973C25.7973 42.6973 25.551 42.8053 25.3696 42.9824C25.1924 43.1596 25.08 43.4059 25.08 43.6825C25.08 43.9547 25.1924 44.201 25.3696 44.3782V44.3825C25.5467 44.5597 25.793 44.6677 26.0696 44.6677ZM27.6511 45.264C27.2449 45.6702 26.6832 45.9208 26.0696 45.9208C25.4517 45.9208 24.8942 45.6702 24.488 45.264H24.4837C24.0775 44.8535 23.8269 44.2961 23.8269 43.6825C23.8269 43.0646 24.0819 42.5071 24.488 42.1009L24.4837 42.0966C24.8899 41.6947 25.4517 41.4441 26.0696 41.4441C26.6875 41.4441 27.2449 41.6947 27.6511 42.0966C28.0573 42.5028 28.3079 43.0646 28.3079 43.6825C28.3079 44.3004 28.0573 44.8578 27.6511 45.264Z" fill="#FFC403"/>
<path d="M34.6079 38.3199L34.6468 45.6011H43.4619V44.3479H35.874L35.8567 38.2983L34.6079 38.3199Z" fill="#FFC403"/>
<path d="M45.3375 47.3468C45.99 47.3468 46.582 47.0832 47.0141 46.6511C47.4419 46.2233 47.7055 45.6313 47.7055 44.9788C47.7055 44.3263 47.4419 43.7343 47.0141 43.3065C46.582 42.8788 45.99 42.6108 45.3375 42.6108C44.685 42.6108 44.093 42.8788 43.6652 43.3065C43.2374 43.7343 42.9695 44.3263 42.9695 44.9788C42.9695 45.6313 43.2374 46.2233 43.6652 46.6511C44.093 47.0832 44.685 47.3468 45.3375 47.3468ZM46.1282 45.7653C45.9251 45.9684 45.6443 46.0937 45.3375 46.0937C45.0307 46.0937 44.7541 45.9684 44.551 45.7653C44.3479 45.5665 44.2226 45.2856 44.2226 44.9788C44.2226 44.672 44.3479 44.3912 44.551 44.1924C44.7541 43.9893 45.0307 43.864 45.3375 43.864C45.6443 43.864 45.9251 43.9893 46.1282 44.1924C46.327 44.3912 46.4523 44.672 46.4523 44.9788C46.4523 45.2856 46.327 45.5665 46.1282 45.7653Z" fill="#FFC403"/>
<path d="M13.0456 36.9372L4.21313 36.9156L4.29524 35.6797L13.0672 35.6884L13.0456 36.9372Z" fill="#FFC403"/>
<path d="M0 36.4662C0 35.8137 0.26359 35.2217 0.691383 34.7939C1.11918 34.3661 1.71117 34.1025 2.36799 34.1025C3.02048 34.1025 3.61248 34.3661 4.04027 34.7939C4.46806 35.2217 4.73165 35.8137 4.73165 36.4662C4.73165 37.123 4.46806 37.715 4.04027 38.1428C3.61248 38.5706 3.02048 38.8342 2.36799 38.8342C1.71117 38.8342 1.11918 38.5706 0.691383 38.1428C0.26359 37.715 0 37.123 0 36.4662ZM1.57722 35.6798C1.37845 35.8829 1.25313 36.1594 1.25313 36.4662C1.25313 36.7773 1.37845 37.0539 1.57722 37.257C1.78031 37.4557 2.05687 37.5811 2.36799 37.5811C2.67479 37.5811 2.95134 37.4557 3.15444 37.257C3.35753 37.0539 3.47852 36.7773 3.47852 36.4662C3.47852 36.1594 3.35753 35.8829 3.15444 35.6798C2.95134 35.481 2.67479 35.3557 2.36799 35.3557C2.05687 35.3557 1.78031 35.481 1.57722 35.6798Z" fill="#FFC403"/>
<path fill-rule="evenodd" clip-rule="evenodd" d="M25.2271 21.1305C27.6038 21.1305 29.531 23.0577 29.531 25.4343C29.531 27.811 27.6038 29.7382 25.2271 29.7382C22.8505 29.7382 20.9233 27.811 20.9233 25.4343C20.9233 23.0577 22.8505 21.1305 25.2271 21.1305ZM31.9119 25.4343C31.9119 21.7441 28.9174 18.7495 25.2271 18.7495C21.5369 18.7495 18.5466 21.7441 18.5466 25.4343C18.5466 29.1246 21.5369 32.1148 25.2271 32.1148C28.9174 32.1148 31.9119 29.1246 31.9119 25.4343Z" fill="#FFC403"/>
<path d="M26.3983 17.1334H24.0605V20.0847H26.3983V17.1334Z" fill="#FFC403"/>
<path d="M31.9245 20.3899L30.272 18.7374L28.1843 20.8251L29.8367 22.4776L31.9245 20.3899Z" fill="#FFC403"/>
<path d="M33.5295 26.6022L33.5295 24.2652L30.5771 24.2652L30.5771 26.6022L33.5295 26.6022Z" fill="#FFC403"/>
<path d="M30.2718 32.1301L31.9243 30.4776L29.8366 28.3899L28.1841 30.0424L30.2718 32.1301Z" fill="#FFC403"/>
<path d="M26.3983 30.7838H24.0605V33.7352H26.3983V30.7838Z" fill="#FFC403"/>
<path d="M18.5318 30.4775L20.1843 32.13L22.272 30.0423L20.6195 28.3898L18.5318 30.4775Z" fill="#FFC403"/>
<path d="M16.9265 24.2652L16.9265 26.6021L19.879 26.6021L19.879 24.2652L16.9265 24.2652Z" fill="#FFC403"/>
<path d="M20.1842 18.7373L18.5317 20.3897L20.6194 22.4775L22.2719 20.825L20.1842 18.7373Z" fill="#FFC403"/>
<path d="M44.3306 33.2167C44.3306 33.7655 44.1102 34.2624 43.7473 34.6254C43.3886 34.984 42.8917 35.2087 42.3429 35.2087C41.7941 35.2087 41.2972 34.984 40.9342 34.6254C40.5755 34.2624 40.3508 33.7655 40.3508 33.2167C40.3508 32.6679 40.5755 32.171 40.9342 31.8123C41.2972 31.4493 41.7941 31.2289 42.3429 31.2289C42.8917 31.2289 43.3886 31.4493 43.7473 31.8123C44.1102 32.171 44.3306 32.6679 44.3306 33.2167ZM43.004 33.8778C43.1725 33.7093 43.2806 33.4759 43.2806 33.2167C43.2806 32.9574 43.1725 32.7241 43.004 32.5555C42.8355 32.387 42.6021 32.279 42.3429 32.279C42.0836 32.279 41.8503 32.387 41.6817 32.5555C41.5089 32.7241 41.4052 32.9574 41.4052 33.2167C41.4052 33.4759 41.5089 33.7093 41.6817 33.8778C41.8503 34.0506 42.0836 34.1544 42.3429 34.1544C42.6021 34.1544 42.8355 34.0506 43.004 33.8778Z" fill="#FFC403"/>
<path d="M37.0974 28.1005L42.9396 28.1307V32.1969H41.6864V29.3579L37.0801 29.3493L37.0974 28.1005Z" fill="#FFC403"/>
<path d="M3.50879 20.2014C3.50879 19.6526 3.73349 19.1557 4.09214 18.797C4.4508 18.434 4.94773 18.2137 5.50084 18.2137C6.04962 18.2137 6.54655 18.434 6.90521 18.797C7.26818 19.1557 7.48856 19.6526 7.48856 20.2014C7.48856 20.7502 7.26818 21.2514 6.90521 21.6101C6.54655 21.9687 6.04962 22.1934 5.50084 22.1934C4.94773 22.1934 4.4508 21.9687 4.09214 21.6101C3.73349 21.2514 3.50879 20.7502 3.50879 20.2014ZM4.83538 19.5402C4.66686 19.7088 4.56315 19.9421 4.56315 20.2014C4.56315 20.4606 4.66686 20.694 4.83538 20.8625C5.0039 21.0354 5.24157 21.1391 5.50084 21.1391C5.75578 21.1391 5.99345 21.0354 6.16197 20.8625C6.3305 20.694 6.4342 20.4606 6.4342 20.2014C6.4342 19.9421 6.3305 19.7088 6.16197 19.5402C5.99345 19.3717 5.75578 19.2637 5.50084 19.2637C5.24157 19.2637 5.0039 19.3717 4.83538 19.5402Z" fill="#FFC403"/>
<path d="M13.0541 25.3176L4.90015 25.2873V21.2255H6.15328V24.0601L13.0758 24.0688L13.0541 25.3176Z" fill="#FFC403"/>
<path d="M8.35273 45.3245C7.87741 45.3245 7.44961 45.5189 7.14281 45.8257C6.83169 46.1369 6.64156 46.5647 6.64156 47.0357C6.64156 47.511 6.83169 47.9388 7.14281 48.2456C7.44961 48.5567 7.87741 48.7468 8.35273 48.7468C8.82374 48.7468 9.25153 48.5567 9.56265 48.2456C9.87378 47.9388 10.0639 47.511 10.0639 47.0357C10.0639 46.5647 9.87378 46.1369 9.56265 45.8257C9.25153 45.5189 8.82374 45.3245 8.35273 45.3245ZM6.25698 44.9399C6.7928 44.4041 7.53172 44.0714 8.35273 44.0714C9.16943 44.0714 9.91267 44.4041 10.4485 44.9399C10.9843 45.48 11.317 46.219 11.317 47.0357C11.317 47.8567 10.9843 48.5956 10.4485 49.1357C9.91267 49.6716 9.16943 50 8.35273 50C7.53172 50 6.7928 49.6716 6.25698 49.1357C5.72116 48.5956 5.38843 47.8567 5.38843 47.0357C5.38843 46.219 5.72116 45.48 6.25698 44.9399Z" fill="#FFC403"/>
</svg>
