<svg width="50" height="51" viewBox="0 0 50 51" fill="none" xmlns="http://www.w3.org/2000/svg">
<g clip-path="url(#clip0_1922_628)">
<path d="M48.6627 46.0287C48.6627 45.5641 48.4743 45.1435 48.1696 44.8393C47.8653 44.5345 47.4447 44.3461 46.9801 44.3461C46.5151 44.3461 46.0944 44.5345 45.7902 44.8393C45.486 45.1435 45.2976 45.5641 45.2976 46.0287C45.2976 46.4938 45.486 46.9144 45.7902 47.2186C46.0944 47.5229 46.5151 47.7112 46.9801 47.7112C47.4447 47.7112 47.8653 47.5229 48.1696 47.2186C48.4743 46.9144 48.6627 46.4938 48.6627 46.0287ZM29.1267 4.27525C29.1267 4.00171 29.0172 3.75621 28.841 3.57949H28.8383C28.6606 3.40171 28.4145 3.29166 28.1431 3.29166C27.8717 3.29166 27.6256 3.40171 27.4473 3.57949C27.2696 3.75726 27.1595 4.0033 27.1595 4.27525C27.1595 4.54668 27.2696 4.79271 27.4473 4.97049V4.97314C27.624 5.14933 27.8696 5.25885 28.1431 5.25885C28.4161 5.25885 28.6621 5.14933 28.8383 4.97314L28.841 4.97049C29.0172 4.7943 29.1267 4.54827 29.1267 4.27525ZM29.7209 2.69695C30.1262 3.10277 30.3764 3.66097 30.3764 4.27525C30.3764 4.88901 30.1267 5.44668 29.7225 5.85197L29.7198 5.85462C29.4574 6.11599 29.1315 6.31282 28.768 6.41917V8.26943H36.7082V12.6779C37.8373 12.6705 38.715 12.7827 39.3971 12.9901L40.8828 9.99906L42.8727 9.56467L43.8431 7.51864C43.1912 7.06943 42.7188 6.43504 42.4648 5.7234C42.1479 4.83504 42.1701 3.82499 42.6066 2.90435C43.0436 1.98266 43.8119 1.32499 44.7002 1.00859C45.5886 0.691656 46.5986 0.713349 47.5193 1.14986C48.4415 1.58742 49.0987 2.35515 49.4156 3.24351C49.7325 4.1324 49.7103 5.14192 49.2738 6.06255C48.8367 6.98478 48.0685 7.64192 47.1801 7.95885C46.4854 8.20647 45.7166 8.24721 44.9738 8.04404L43.7362 10.6546L41.732 11.0922L40.5219 13.5292L40.5611 13.5583C41.386 14.1837 41.6404 15.0319 41.6653 15.9869C41.6754 16.3599 41.6807 17.4864 41.6828 18.9827H44.0055C44.1293 18.4329 44.4076 17.9409 44.7928 17.5562C45.3235 17.0255 46.0569 16.6969 46.8664 16.6969C47.6759 16.6969 48.4092 17.0255 48.9399 17.5562C49.4706 18.0869 49.7986 18.8197 49.7986 19.6297C49.7986 20.4393 49.4706 21.1726 48.9399 21.7028C48.4092 22.2335 47.6759 22.562 46.8664 22.562C46.0563 22.562 45.3235 22.234 44.7928 21.7028C44.3976 21.3081 44.1145 20.8006 43.996 20.2329H41.6838C41.6844 22.8197 41.6796 26.0599 41.6743 28.5218L47.605 28.6006L47.5505 37.798H47.5526V43.1525C48.133 43.2673 48.6516 43.553 49.0537 43.9551C49.5844 44.4858 49.9124 45.2192 49.9124 46.0287C49.9124 46.8387 49.5844 47.5715 49.0537 48.1022C48.523 48.6329 47.7897 48.9615 46.9801 48.9615C46.1701 48.9615 45.4373 48.6329 44.9066 48.1022C44.3759 47.5715 44.0473 46.8382 44.0473 46.0287C44.0473 45.2192 44.3759 44.4858 44.9066 43.9551C45.2844 43.5774 45.7648 43.3022 46.3029 43.1753V37.798L46.3055 37.7954L46.3526 29.8292L41.6717 29.7668C41.6685 31.0943 41.6664 32.0218 41.6658 32.2059C41.7055 32.5816 41.9087 35.353 39.2161 35.5028C38.9584 35.5171 38.5177 35.5282 37.9394 35.5361V40.4536C38.5071 40.5721 39.0145 40.8551 39.4098 41.2504C39.9405 41.7811 40.269 42.5144 40.269 43.3239C40.269 44.1335 39.9405 44.8668 39.4098 45.3975C38.8791 45.9282 38.1457 46.2562 37.3362 46.2562C36.5267 46.2562 35.7934 45.9282 35.2627 45.3975C34.732 44.8668 34.4039 44.1335 34.4039 43.3239C34.4039 42.5144 34.732 41.7811 35.2627 41.2504C35.6479 40.8652 36.1394 40.5869 36.6897 40.4631V35.5488C34.5463 35.5631 31.4791 35.5573 28.6367 35.5462L29.8955 39.2763H32.0129V40.5266H25.8918V43.8573C26.2569 43.9641 26.5838 44.161 26.8457 44.4229L26.8447 44.4245C27.2494 44.8297 27.5002 45.3879 27.5002 46.0022C27.5002 46.616 27.25 47.1737 26.8457 47.579L26.8436 47.5816C26.4378 47.9858 25.8807 48.2361 25.2664 48.2361C24.6526 48.2361 24.0955 47.9858 23.6897 47.5816L23.6875 47.579C23.2833 47.1737 23.033 46.616 23.033 46.0022C23.033 45.3879 23.2838 44.8297 23.6886 44.4245L23.6875 44.4229C23.9494 44.161 24.2759 43.9641 24.6415 43.8573V40.5266H18.2685V39.2763H20.7283L21.9997 35.5086L21.3886 35.5043C20.2299 36.3742 13.4129 41.4774 13.0018 41.4774C12.2822 41.4774 12.3875 40.2901 12.7912 38.8239C13.0775 37.7837 13.4457 36.552 13.6844 35.7663L13.7018 35.7075C13.6362 35.707 13.5658 35.7065 13.4907 35.7049C12.6812 35.6869 11.577 35.5768 10.6531 35.1551C9.85685 34.7922 9.19918 34.2186 8.93833 33.3213L4.39495 33.3335V45.1102C4.96267 45.2287 5.47008 45.5118 5.86532 45.9065C6.39547 46.4372 6.72405 47.1705 6.72405 47.98C6.72405 48.7901 6.39547 49.5229 5.86532 50.0536C5.33463 50.5842 4.6013 50.9128 3.79177 50.9128C2.98172 50.9128 2.24891 50.5842 1.71823 50.0536C1.18754 49.5229 0.858967 48.7895 0.858967 47.98C0.858967 47.1705 1.18754 46.4372 1.71823 45.9065C2.10288 45.5218 2.59495 45.243 3.14468 45.1192V32.0917L8.8177 32.0763V24.8694H5.83145C5.71294 25.4372 5.42987 25.9446 5.03463 26.3398C4.50394 26.8705 3.77114 27.1985 2.96161 27.1985C2.15156 27.1985 1.41823 26.8705 0.888068 26.3398C0.35738 25.8091 0.0288086 25.0758 0.0288086 24.2663C0.0288086 23.4562 0.356851 22.7234 0.888068 22.1927C1.41823 21.662 2.15156 21.3335 2.96161 21.3335C3.77114 21.3335 4.50447 21.662 5.03463 22.1927C5.41981 22.5779 5.69812 23.0694 5.82246 23.6197H8.8177V16.0631C8.8177 15.3133 9.0468 14.626 9.45632 14.0795C9.75897 13.6753 10.1584 13.3514 10.6357 13.1398L9.69918 11.225L6.63198 10.2155L5.46585 7.82869C4.89442 7.98001 4.30288 7.95091 3.76532 7.76626C3.05526 7.52234 2.43833 7.00753 2.08278 6.28001C1.72775 5.55303 1.70077 4.75039 1.94415 4.04086C2.18807 3.33134 2.70288 2.71441 3.43092 2.35885L3.43145 2.36044L3.43092 2.35832L3.51029 2.32129L3.56267 2.29483H3.56955C4.25897 2.00118 5.005 1.99166 5.66955 2.22023C6.37907 2.46414 6.99653 2.97896 7.35209 3.70647L7.41558 3.83663V3.84562C7.70976 4.53504 7.71876 5.28107 7.49071 5.94562C7.31664 6.45091 7.00553 6.90912 6.57801 7.25991L7.52299 9.19377L10.5838 10.2006L11.9108 12.9133C12.5621 12.8927 13.4897 12.88 14.105 12.8721V11.3784H17.2955V8.26943H27.5182V6.41917C27.1537 6.31282 26.8277 6.11546 26.5648 5.85303L26.5637 5.85462C26.1595 5.45039 25.9098 4.89165 25.9098 4.27525C25.9098 3.65832 26.1595 3.10012 26.5637 2.69589C26.968 2.29166 27.5262 2.04139 28.1431 2.04139C28.7595 2.04139 29.3182 2.29166 29.7225 2.69589L29.7209 2.69695ZM25.9648 46.698C26.141 46.5213 26.25 46.2758 26.25 46.0022C26.25 45.7292 26.141 45.4832 25.9648 45.307H25.9621C25.7844 45.1292 25.5383 45.0186 25.2664 45.0186C24.9949 45.0186 24.7489 45.1292 24.5711 45.307H24.5685C24.3923 45.4832 24.2833 45.7292 24.2833 46.0022C24.2833 46.2758 24.3923 46.5213 24.5685 46.698L24.5711 46.7001C24.7473 46.8768 24.9934 46.9858 25.2664 46.9858C25.5399 46.9858 25.7859 46.8768 25.9621 46.7001L25.9648 46.698ZM45.6764 20.8192C45.9807 21.1234 46.4013 21.3123 46.8664 21.3123C47.3309 21.3123 47.7516 21.1234 48.0558 20.8192C48.3606 20.5149 48.5489 20.0943 48.5489 19.6297C48.5489 19.1647 48.3606 18.744 48.0558 18.4398C47.7516 18.1356 47.3309 17.9472 46.8664 17.9472C46.4013 17.9472 45.9807 18.1356 45.6764 18.4398C45.3722 18.744 45.1838 19.1647 45.1838 19.6297C45.1838 20.0943 45.3722 20.5149 45.6764 20.8192ZM2.96161 25.9488C3.42616 25.9488 3.8468 25.7604 4.15103 25.4557C4.45526 25.1514 4.64362 24.7308 4.64362 24.2663C4.64362 23.8017 4.45526 23.3805 4.15103 23.0763C3.8468 22.7721 3.42616 22.5837 2.96161 22.5837C2.49653 22.5837 2.0759 22.7721 1.77167 23.0763C1.46743 23.3805 1.27907 23.8017 1.27907 24.2663C1.27907 24.7308 1.46743 25.1514 1.77167 25.4557C2.0759 25.7604 2.49653 25.9488 2.96161 25.9488ZM5.47431 47.98C5.47431 47.5155 5.28595 47.0948 4.98119 46.7906C4.67696 46.4858 4.25632 46.2975 3.79177 46.2975C3.32669 46.2975 2.90606 46.4858 2.60182 46.7906C2.29759 47.0948 2.10923 47.5155 2.10923 47.98C2.10923 48.4451 2.29759 48.8657 2.60182 49.17C2.90606 49.4742 3.32669 49.6626 3.79177 49.6626C4.25632 49.6626 4.67696 49.4742 4.98119 49.17C5.28595 48.8657 5.47431 48.4451 5.47431 47.98ZM43.7346 3.43663C43.4457 4.04562 43.4315 4.71441 43.6415 5.3033C43.8516 5.89271 44.2854 6.40118 44.8934 6.68901C45.5018 6.9779 46.1711 6.99218 46.76 6.78213C47.3494 6.57208 47.8579 6.13822 48.1457 5.53028C48.4346 4.92181 48.4489 4.2525 48.2389 3.66361C48.0283 3.07472 47.5944 2.56573 46.987 2.2779C46.378 1.98954 45.7092 1.97472 45.1203 2.18531C44.5309 2.39536 44.0225 2.82922 43.7346 3.43663ZM3.20553 5.73292C3.40923 6.14986 3.7632 6.44509 4.17061 6.58478C4.57801 6.72446 5.03886 6.70912 5.45685 6.50488C5.87378 6.30118 6.16902 5.94721 6.3087 5.54033C6.44891 5.13293 6.43304 4.67155 6.22881 4.25356L6.22722 4.24986C6.02299 3.83504 5.67008 3.54139 5.26426 3.40171C4.85685 3.26203 4.396 3.27737 3.97801 3.4816L3.97378 3.48372C3.55897 3.68742 3.26532 4.04033 3.12563 4.44615C2.98595 4.85356 3.0013 5.31494 3.20553 5.73292ZM39.0188 43.3239C39.0188 42.8594 38.8304 42.4382 38.5262 42.134C38.2219 41.8298 37.8008 41.6414 37.3362 41.6414C36.8717 41.6414 36.451 41.8298 36.1468 42.134C35.842 42.4382 35.6537 42.8594 35.6537 43.3239C35.6537 43.7885 35.842 44.2091 36.1468 44.5133C36.451 44.8181 36.8717 45.0065 37.3362 45.0065C37.8008 45.0065 38.2219 44.8181 38.5262 44.5133C38.8304 44.2091 39.0188 43.7885 39.0188 43.3239ZM18.5664 14.58V16.0932H17.3161V14.58H18.5664ZM20.2436 22.0044V27.0858H22.2251V16.1546H23.4748V27.0858H25.6193V20.2282H26.869V27.0858H29.2198V18.8546H30.4701V28.3356H17.5934V27.0858H18.9934V22.0044H20.2436ZM28.5807 39.2763L27.3198 35.5403C25.7912 35.5329 24.3891 35.5245 23.3119 35.5176L22.0436 39.2763H28.5807ZM40.423 31.3223H10.068V32.4255C10.068 33.253 10.5489 33.7387 11.1706 34.0223C11.9024 34.3562 12.8283 34.4446 13.5151 34.4594C13.7045 34.4636 13.8579 34.4626 13.9828 34.462C14.4558 34.4583 14.6955 34.4573 14.9352 34.7234C15.2325 35.0546 15.1526 35.2932 14.9902 35.7758C14.9547 35.8805 14.9119 36.007 14.8754 36.1276C14.6383 36.9086 14.2733 38.1303 13.9923 39.1509C13.8283 39.7456 12.4711 40.2276 13.0018 40.2276C13.0436 40.2276 20.7875 34.3985 20.8092 34.3821L20.9775 34.2557L21.1881 34.2573C21.233 34.2578 36.9436 34.38 39.1479 34.2573C40.6807 34.1726 40.4262 32.325 40.4251 32.3197L40.4203 32.2811V32.2414L40.423 31.3223ZM10.068 30.0726H40.4256C40.4352 25.9308 40.4516 17.1964 40.4203 16.0165C40.4045 15.4171 40.2632 14.8985 39.8087 14.5541C39.2759 14.1504 38.3246 13.9112 36.7082 13.9234V28.3657H35.4579V9.51917H18.5457V11.3784H33.5992V28.4477H32.3489V12.6282H15.3547V28.3657H14.105V14.1176C13.1759 14.1297 11.5341 14.1514 11.4611 14.1694C11.0373 14.2731 10.6918 14.507 10.4526 14.8266C10.2061 15.1557 10.068 15.5837 10.068 16.0631V30.0726ZM13.9627 35.5213L13.987 35.5462V35.5366C13.9674 35.516 13.9611 35.5133 13.9627 35.5213ZM13.987 35.5462C14.0558 35.616 14.0986 35.6599 14.0071 35.5583L13.987 35.5366V35.5462Z" fill="#FFC403"/>
</g>
<defs>
<clipPath id="clip0_1922_628">
<rect width="50" height="50" fill="white" transform="translate(0 0.823532)"/>
</clipPath>
</defs>
</svg>
