<svg width="50" height="50" viewBox="0 0 50 50" fill="none" xmlns="http://www.w3.org/2000/svg">
<path d="M4.33376 34.516C4.33376 34.8078 4.09706 35.0445 3.80581 35.0445C3.51404 35.0445 3.27734 34.8078 3.27734 34.516V10.3287C3.27734 7.8256 4.47567 7.83778 6.05632 7.8542H39.4051V7.85579C39.6317 7.85155 42.1523 7.85208 42.1538 10.0507L42.1724 37.8065L42.174 38.246C42.1867 41.1134 42.193 42.4584 38.525 42.4584H20.9377C20.6459 42.4584 20.4092 42.2217 20.4092 41.93C20.4092 41.6382 20.6459 41.402 20.9377 41.402H38.525C41.1356 41.402 41.1313 40.3954 41.1218 38.2503L41.1202 37.8065L41.1011 10.0507C41.1006 8.84654 39.4262 8.90849 39.4215 8.90849L39.4051 8.91061H6.37509C6.2766 8.91061 6.25436 8.90849 6.04784 8.90637C5.07298 8.89631 4.33376 8.8889 4.33376 10.3287V34.516Z" fill="#FFC403"/>
<path d="M22.7265 22.9622C24.1891 22.9622 25.5145 23.5569 26.475 24.518C27.4345 25.478 28.0281 26.8034 28.0281 28.2671C28.0281 29.5739 27.5542 30.7717 26.7689 31.6968C26.035 32.5621 25.0284 33.1885 23.8814 33.4438L23.8512 33.5009C23.7882 33.6174 23.7125 33.7281 23.6251 33.8303C23.5621 33.9034 23.4715 34.0035 23.3572 34.1263C23.2491 34.2418 23.1083 34.3906 22.9399 34.5669L22.9113 34.5971L22.9018 34.6087L22.9007 34.6077C22.6296 34.8888 22.3595 35.1706 22.0874 35.4507L22.0821 35.4581L22.081 35.457L22.0487 35.4909L22.0466 35.4952L22.0418 35.4999L22.0408 35.4989C22.0137 35.5269 21.9862 35.5555 21.9592 35.5831V36.9514H23.4938V35.1266L23.9312 35.0493C24.4289 34.9614 24.9066 34.8205 25.3588 34.6331C25.8258 34.4393 26.2648 34.1978 26.6683 33.9156L27.03 33.6619L28.3199 34.9529L29.4076 33.8642L28.1176 32.5737L28.3702 32.2121C28.6541 31.8064 28.8955 31.368 29.0877 30.9036C29.2747 30.4524 29.415 29.9737 29.5034 29.4728L29.5802 29.0354H31.4039V27.4987H29.5807L29.5034 27.0613C29.415 26.5609 29.2747 26.0817 29.0877 25.6305C28.895 25.1661 28.6535 24.7277 28.3702 24.3221L28.1171 23.9604L29.407 22.6699L28.3194 21.5812L27.03 22.8717L26.6683 22.6186C26.2648 22.3363 25.8264 22.0949 25.3593 21.9011C24.9071 21.7136 24.4289 21.5728 23.9312 21.4849L23.4938 21.4075V19.5828H21.9592V21.4075L21.5218 21.4849C21.0241 21.5728 20.5459 21.7136 20.0942 21.9011C19.6266 22.0949 19.1882 22.3363 18.7847 22.6186L18.423 22.8722L17.1331 21.5812L16.0454 22.6699L17.3354 23.9609L17.0828 24.3226C16.7989 24.7277 16.558 25.1661 16.3653 25.6305C16.1783 26.0817 16.038 26.5609 15.9496 27.0613L15.8728 27.4987H14.0491V29.0354H15.8723L15.9496 29.4728C16.0375 29.9732 16.1783 30.4524 16.3653 30.9036C16.5575 31.368 16.7989 31.8064 17.0822 32.2121L17.3354 32.5737L16.4696 33.44C16.7116 33.6037 17.0277 33.8589 17.2522 34.1205C17.3698 34.2571 17.4683 34.4022 17.535 34.551L18.423 33.6619L18.5104 33.7233C18.7598 33.493 19.0272 33.2478 19.3121 32.9899L19.7114 32.6299C19.113 32.2142 18.6036 31.6778 18.2181 31.0556C17.7156 30.2433 17.4248 29.288 17.4248 28.2671C17.4248 26.8034 18.0184 25.478 18.978 24.518C19.9385 23.5569 21.2639 22.9622 22.7265 22.9622ZM25.7284 25.2609C24.9611 24.4931 23.8999 24.0187 22.7265 24.0187C21.5531 24.0187 20.4913 24.4931 19.7246 25.2609C18.9568 26.0293 18.4818 27.0926 18.4818 28.2671C18.4818 29.0894 18.7127 29.8551 19.1135 30.5022C19.5281 31.1721 20.126 31.7185 20.8371 32.0728L21.5446 32.4249L20.9489 32.9439C20.6031 33.2446 20.2933 33.52 20.0174 33.7699C19.7002 34.0575 19.3232 34.4054 18.9171 34.784L18.6078 35.0721L18.5459 35.0297L17.1331 36.443L16.3351 35.6445L16.4357 35.3384L16.487 35.1758C16.5188 35.0752 16.5506 34.9741 16.5877 34.8677C16.6057 34.8168 16.5156 34.8793 16.4516 34.8052C16.2276 34.5441 15.8924 34.3016 15.7621 34.2412C15.7293 34.2259 15.697 34.2163 15.6652 34.2116C15.6276 34.2063 15.5858 34.2063 15.5413 34.2121L14.021 34.4001L15.976 32.444C15.7515 32.0818 15.5556 31.7005 15.3914 31.3039C15.2294 30.9126 15.0981 30.5075 14.9996 30.0918H12.9927V26.4423H14.9996C15.0981 26.0266 15.2294 25.6215 15.3914 25.2307C15.5556 24.8336 15.7521 24.4529 15.976 24.0907L14.5564 22.6699L17.1331 20.0911L18.5527 21.5119C18.9155 21.2868 19.2951 21.0904 19.6896 20.9273C20.0799 20.7652 20.4855 20.6334 20.9028 20.5349V18.5264H24.5502V20.5349C24.9675 20.6334 25.3731 20.7652 25.7639 20.9273C26.1578 21.0909 26.5381 21.2863 26.9003 21.5113L28.3194 20.0911L30.8966 22.6699L29.4769 24.0901C29.7009 24.4523 29.8969 24.8336 30.0615 25.2302C30.2236 25.6215 30.3549 26.0266 30.4534 26.4423H32.4603V30.0918H30.4534C30.3549 30.5075 30.2236 30.9131 30.0615 31.3039C29.8974 31.7011 29.7015 32.0818 29.4769 32.444L30.8966 33.8642L28.3199 36.443L26.9003 35.0223C26.5375 35.2473 26.1578 35.4433 25.7633 35.6069C25.3731 35.7689 24.9675 35.9008 24.5502 35.9993V38.0078H20.9028V36.004L20.2133 35.8658C20.4993 35.5725 20.7852 35.2791 21.0707 34.9852L21.0749 34.9789L21.0781 34.9762L21.0786 34.9767L21.1146 34.9402L21.1194 34.9333L21.1204 34.9344C21.1755 34.8772 21.2316 34.8205 21.2867 34.7633L21.2909 34.757L21.2952 34.7522L21.2962 34.7533L21.3312 34.7173L21.3365 34.7099L21.3375 34.7109C21.6097 34.4303 21.8803 34.1358 22.1557 33.8605L22.1567 33.8616L22.1763 33.8409C22.3304 33.6794 22.4681 33.5343 22.5851 33.4083C22.6958 33.2897 22.7768 33.2007 22.8245 33.1451C22.8658 33.0969 22.8997 33.0477 22.9272 32.9974C22.9553 32.946 22.9775 32.8904 22.995 32.8321L23.0887 32.5144L23.4159 32.4609C24.4311 32.2952 25.3265 31.7683 25.9646 31.0159C26.5926 30.2761 26.9712 29.3161 26.9712 28.2671C26.9712 27.0926 26.4962 26.0293 25.7284 25.2609Z" fill="#FFC403"/>
<path d="M3.80591 14.2716H41.3141V15.328H3.80591V14.2716Z" fill="#FFC403"/>
<path d="M8.23135 12.316C7.93958 12.316 7.70288 12.0793 7.70288 11.7876C7.70288 11.4958 7.93958 11.2596 8.23135 11.2596H26.4244C26.7162 11.2596 26.9529 11.4958 26.9529 11.7876C26.9529 12.0793 26.7162 12.316 26.4244 12.316H8.23135Z" fill="#FFC403"/>
<path d="M3.01806 40.6564C2.89097 40.9175 2.5759 41.0255 2.31485 40.8979C2.05379 40.7703 1.94576 40.4552 2.07338 40.1942C2.41281 39.4999 2.65269 38.8539 2.87827 38.2481C3.36384 36.9418 3.78535 35.8065 4.9805 34.6108L5.40042 34.1903C6.93552 32.6531 8.28318 31.3034 8.56701 31.1694C9.5191 30.7182 10.3478 30.8501 10.9467 31.2202C11.2152 31.386 11.4355 31.5999 11.5986 31.8308C11.767 32.0685 11.8787 32.3322 11.9242 32.588C12.0058 33.0434 11.8861 33.475 11.5281 33.7545C11.2989 33.9335 10.9684 33.8928 10.7894 33.664C10.6105 33.4347 10.6512 33.1043 10.88 32.9253C10.9012 32.9089 10.9022 32.8506 10.8885 32.7739C10.8699 32.6695 10.8175 32.5525 10.7365 32.4376C10.6496 32.3153 10.5342 32.2025 10.3934 32.1156C10.0656 31.9134 9.59218 31.8498 9.01711 32.1225C8.89796 32.1787 7.61226 33.4665 6.14705 34.9333L5.72767 35.3537C4.69138 36.39 4.30694 37.4247 3.86478 38.6151C3.63126 39.2426 3.38291 39.9109 3.01806 40.6564ZM15.5414 38.1703C15.3355 38.3758 15.0019 38.3747 14.7969 38.1682C14.5915 37.9622 14.5925 37.6286 14.799 37.4237C15.1051 37.1176 15.4938 36.722 15.937 36.2709C17.0633 35.1239 18.5439 33.6169 19.9958 32.2337C20.7383 31.5268 21.5961 31.3208 22.2654 31.4548C22.5498 31.512 22.8066 31.6317 23.0152 31.8038C23.236 31.9854 23.3991 32.2216 23.4817 32.5011C23.6337 33.0127 23.5125 33.6476 22.9681 34.3063C22.1108 35.3437 13.9926 43.4529 13.9693 43.4762C13.7633 43.6822 13.4286 43.6822 13.2226 43.4762C13.0161 43.2697 13.0161 42.9355 13.2226 42.729C13.2459 42.7057 21.3387 34.6209 22.1553 33.6333C22.4476 33.2801 22.5291 32.9941 22.4709 32.7987C22.4497 32.7273 22.4063 32.6653 22.347 32.6166C22.2755 32.5578 22.1765 32.5144 22.0589 32.4906C21.6877 32.4164 21.1884 32.5536 20.7224 32.9973C19.2752 34.3757 17.8062 35.8711 16.6879 37.0096C16.2447 37.4607 15.856 37.8568 15.5414 38.1703Z" fill="#FFC403"/>
<path d="M16.8961 40.0348C16.6303 39.9167 16.5112 39.6053 16.6298 39.3395C16.7484 39.0742 17.0598 38.9551 17.3251 39.0737C17.6497 39.2188 17.9113 39.402 18.1167 39.6075C18.4657 39.9564 18.6552 40.3668 18.7209 40.774C18.7866 41.1817 18.7257 41.5868 18.5748 41.9226C18.4874 42.1174 18.3704 42.2906 18.2295 42.4314C18.0002 42.6607 17.6555 43.0213 17.2599 43.4344C16.4418 44.2896 15.4251 45.3523 15.0963 45.6346C14.7929 45.8946 14.0785 46.3939 13.37 46.7926C12.8421 47.0897 12.2998 47.3402 11.8894 47.4201C11.5013 47.4959 11.1227 47.5192 10.7647 47.5414C10.358 47.5663 9.9826 47.5896 9.73213 47.6897C9.46207 47.7982 9.15495 47.6669 9.04692 47.3968C8.9389 47.1268 9.06969 46.8202 9.33975 46.7116C9.75014 46.5475 10.2071 46.5194 10.7028 46.4887C11.0242 46.4691 11.3641 46.4479 11.6914 46.3844C11.9758 46.3293 12.4094 46.1223 12.8542 45.8723C13.5072 45.5048 14.1474 45.06 14.4111 44.8339C14.7219 44.5676 15.7073 43.5376 16.5006 42.7084C16.9438 42.245 17.3314 41.84 17.4829 41.6885C17.5342 41.6371 17.5787 41.5704 17.6131 41.4936C17.6846 41.3343 17.7132 41.1389 17.6809 40.9392C17.6486 40.738 17.5522 40.5325 17.3738 40.3541C17.2536 40.2339 17.0958 40.1248 16.8961 40.0348Z" fill="#FFC403"/>
<path d="M0.427682 41.2358L1.3676 40.2858V40.2831L1.36866 40.2842C1.63607 40.0147 1.9898 39.8791 2.34458 39.8775C2.69884 39.8754 3.05468 40.0089 3.3258 40.2773L3.32845 40.2779L3.32739 40.2784L9.78977 46.682C10.0598 46.9494 10.1959 47.3042 10.1975 47.6595C10.1996 48.0143 10.0662 48.3701 9.79772 48.6418L8.8578 49.5918L8.85727 49.5944L8.85621 49.5933C8.5888 49.8623 8.23507 49.9984 7.88029 50C7.52603 50.0016 7.17072 49.8687 6.89907 49.6002L6.89642 49.5997L6.89748 49.5986L0.435625 43.1956C0.165565 42.9276 0.0289464 42.5728 0.0273578 42.2181C0.0257692 41.8633 0.159211 41.5069 0.427682 41.2358ZM2.11318 41.0298L1.17432 41.9782C1.11078 42.0428 1.07953 42.128 1.07953 42.2138C1.08006 42.2985 1.11289 42.3838 1.17856 42.4484L7.64147 48.8531H7.64412L7.64306 48.8541C7.70713 48.9171 7.79133 48.9484 7.87658 48.9478C7.96078 48.9473 8.04603 48.9145 8.1101 48.8494L8.11063 48.8467L8.11169 48.8478L9.05055 47.8988C9.11409 47.8348 9.14586 47.749 9.14533 47.6637C9.1448 47.5785 9.11197 47.4932 9.04684 47.4286L2.5834 41.0245L2.58128 41.024L2.58234 41.0229C2.51827 40.9604 2.43354 40.9292 2.34882 40.9297C2.26409 40.9302 2.17937 40.9631 2.11476 41.0282L2.11424 41.0303L2.11318 41.0298Z" fill="#FFC403"/>
<path d="M17.5122 35.1033C17.6785 35.3415 17.6202 35.6693 17.3819 35.8356C17.1442 36.0019 16.8159 35.9436 16.6496 35.7059C16.648 35.7037 16.1031 34.9126 15.259 34.7437C14.6522 34.6224 13.9342 35.3897 13.4549 35.9013C13.3406 36.0236 13.2362 36.1353 13.1679 36.2026C12.9609 36.4064 12.6273 36.4038 12.4234 36.1967C12.2195 35.9892 12.2222 35.6556 12.4292 35.4517C12.523 35.359 12.6013 35.2754 12.6876 35.1832C13.3279 34.4991 14.2884 33.4728 15.4656 33.7079C16.7248 33.9595 17.5101 35.1001 17.5122 35.1033Z" fill="#FFC403"/>
<path d="M13.9647 35.1806C13.8333 35.44 13.5167 35.5444 13.2567 35.4136C12.9967 35.2828 12.8924 34.9656 13.0237 34.7061C13.0247 34.704 13.4076 33.9759 12.6366 33.5708C11.962 33.216 11.4144 33.8324 11.0152 34.2825C10.9087 34.4027 10.8092 34.5144 10.716 34.6066C10.5084 34.8104 10.1753 34.8078 9.97147 34.6002C9.76707 34.3926 9.77024 34.059 9.97729 33.8552C10.0541 33.7794 10.1372 33.6857 10.2267 33.5851C10.8584 32.8739 11.7232 31.8996 13.1275 32.6378C14.8304 33.5332 13.9668 35.1758 13.9647 35.1806Z" fill="#FFC403"/>
<path d="M41.1526 12.0909L43.0367 10.0062L42.8333 6.78134L44.9991 4.38681L45.9247 5.22664L44.1142 7.2288L44.3171 10.4473L42.0771 12.926L41.1526 12.0909Z" fill="#FFC403"/>
<path d="M45.7225 1.92982C45.4112 2.27455 45.2687 2.713 45.2904 3.14351C45.3121 3.57401 45.498 3.99658 45.8432 4.309C46.1874 4.62036 46.6264 4.76281 47.0564 4.7411C47.4869 4.71939 47.91 4.53352 48.2219 4.18827L48.2251 4.18509C48.5343 3.8409 48.6762 3.40403 48.6545 2.97512C48.6328 2.54461 48.4469 2.12204 48.1017 1.80962L48.0985 1.80644C47.7543 1.4972 47.3175 1.35528 46.8885 1.37699C46.4575 1.3987 46.0349 1.58457 45.7225 1.92982ZM44.0418 3.20652C44.0042 2.45618 44.2525 1.69153 44.7969 1.08999C45.3402 0.489502 46.0752 0.165959 46.825 0.128363C47.5753 0.0907659 48.34 0.339645 48.9415 0.883472L48.9399 0.885061L48.9415 0.883472L49.0056 0.943309L49.0496 0.982494L49.0522 0.988849C49.5817 1.51997 49.8677 2.20941 49.9032 2.91157C49.9408 3.66192 49.6919 4.42656 49.148 5.0281L49.0511 5.1356L49.0427 5.13877C48.5116 5.6683 47.8221 5.95478 47.1199 5.98973C46.3696 6.02733 45.605 5.77898 45.0034 5.23462C44.4029 4.69185 44.0794 3.95633 44.0418 3.20652Z" fill="#FFC403"/>
<path d="M43.7138 47.1251C43.0926 46.6041 42.7416 45.8813 42.6754 45.133C42.6097 44.3848 42.8295 43.6112 43.35 42.9906C43.8705 42.3694 44.5939 42.0178 45.3421 41.9522C46.0903 41.8865 46.8634 42.1063 47.4846 42.6268C48.1052 43.1473 48.4568 43.8706 48.5224 44.6189C48.5886 45.3671 48.3689 46.1402 47.8483 46.7614C47.3273 47.3825 46.6045 47.7336 45.8563 47.7992C45.108 47.8649 44.3344 47.6457 43.7138 47.1251ZM43.9214 45.0234C43.9595 45.4524 44.1607 45.8675 44.5171 46.1662C44.8734 46.4648 45.3172 46.5908 45.7466 46.5532C46.1756 46.5157 46.5907 46.3139 46.8894 45.9575C47.188 45.6012 47.314 45.1574 47.2765 44.7285C47.2389 44.299 47.0371 43.8844 46.6807 43.5852C46.3244 43.2866 45.8806 43.1606 45.4517 43.1981C45.0222 43.2363 44.6076 43.4375 44.3084 43.7939C44.0098 44.1502 43.8838 44.594 43.9214 45.0234Z" fill="#FFC403"/>
<path d="M31.2639 42.1095L31.1734 45.3989L29.9226 45.3645L30.0137 42.0751L31.2639 42.1095Z" fill="#FFC403"/>
<path d="M41.5785 27.2212L46.3793 27.2117L46.3247 36.417H46.3274V42.3451H45.0761V36.417L45.0787 36.4144L45.1259 28.4413L41.5637 28.4677L41.5785 27.2212Z" fill="#FFC403"/>
<path d="M31.3776 47.9746C31.6757 47.7384 31.8494 47.4037 31.8901 47.0537C31.9304 46.7042 31.8377 46.3388 31.6015 46.0407C31.3654 45.7426 31.0307 45.5689 30.6812 45.5281C30.3312 45.4879 29.9658 45.5806 29.6677 45.8167C29.3701 46.0529 29.1959 46.3876 29.1551 46.737C29.1149 47.0871 29.2075 47.4524 29.4437 47.7506C29.6799 48.0487 30.0145 48.2224 30.3646 48.2632C30.7141 48.3034 31.0794 48.2107 31.3776 47.9746ZM32.9058 47.1713C32.8353 47.7813 32.5319 48.3643 32.013 48.7757C31.4935 49.1872 30.8565 49.3492 30.247 49.2788C29.637 49.2084 29.054 48.9049 28.6425 48.3855C28.2311 47.8665 28.0691 47.2295 28.1395 46.6195C28.2104 46.01 28.5133 45.4265 29.0328 45.0155C29.5517 44.6041 30.1888 44.4421 30.7988 44.5125C31.4088 44.5829 31.9918 44.8863 32.4033 45.4053C32.8142 45.9248 32.9762 46.5618 32.9058 47.1713Z" fill="#FFC403"/>
<path d="M41.2837 18.7016L44.5726 18.7922L44.5382 20.0424L41.2493 19.9518L41.2837 18.7016Z" fill="#FFC403"/>
<path d="M47.1479 18.5877C46.9118 18.2896 46.5771 18.1154 46.2276 18.0752C45.8776 18.0344 45.5122 18.1276 45.2141 18.3637C44.9165 18.5999 44.7423 18.9346 44.7015 19.2841C44.6613 19.6341 44.7545 19.9995 44.9906 20.2976C45.2263 20.5952 45.5609 20.7694 45.911 20.8096C46.2604 20.8504 46.6263 20.7572 46.9239 20.5211C47.2221 20.2854 47.3963 19.9507 47.4365 19.6007C47.4773 19.2512 47.3841 18.8853 47.1479 18.5877ZM46.3452 17.0595C46.9552 17.1299 47.5382 17.4334 47.9496 17.9523C48.3611 18.4718 48.5231 19.1083 48.4522 19.7183C48.3817 20.3283 48.0783 20.9113 47.5594 21.3228C47.0399 21.7342 46.4034 21.8962 45.7934 21.8258C45.1834 21.7549 44.6004 21.4514 44.1889 20.9325C43.7775 20.4136 43.6154 19.7765 43.6859 19.1665C43.7568 18.5565 44.0597 17.9735 44.5792 17.562C45.0981 17.1506 45.7351 16.9886 46.3452 17.0595Z" fill="#FFC403"/>
<path d="M29.3931 8.19734L29.4836 4.9079L30.7338 4.94232L30.6433 8.23176L29.3931 8.19734Z" fill="#FFC403"/>
<path d="M29.2787 2.33223C28.9806 2.5684 28.8064 2.90306 28.7662 3.25308C28.7254 3.60257 28.8186 3.96795 29.0548 4.26607C29.2909 4.5642 29.6256 4.73788 29.9751 4.77866C30.3251 4.8189 30.6905 4.72624 30.9886 4.49007C31.2862 4.25389 31.4604 3.91923 31.5007 3.56974C31.5414 3.21972 31.4482 2.85435 31.2121 2.55622C30.9759 2.2581 30.6418 2.08441 30.2917 2.04364C29.9422 2.00339 29.5763 2.09606 29.2787 2.33223ZM27.7505 3.13553C27.821 2.52551 28.1244 1.9425 28.6433 1.53105C29.1628 1.11961 29.7993 0.957571 30.4093 1.028C31.0193 1.09843 31.6023 1.40185 32.0138 1.92132C32.4252 2.44025 32.5873 3.07728 32.5168 3.6873C32.4459 4.29679 32.1424 4.8798 31.6235 5.29124C31.1046 5.70269 30.4675 5.86472 29.8575 5.7943C29.2475 5.72387 28.6645 5.42045 28.253 4.90151C27.8416 4.38204 27.6796 3.74502 27.7505 3.13553Z" fill="#FFC403"/>
<path d="M0.685417 4.8205C1.20647 5.44164 1.92928 5.79271 2.67751 5.85838C3.42573 5.92404 4.19938 5.70481 4.82052 5.18375C5.44113 4.66323 5.79273 3.94042 5.85839 3.19219C5.92406 2.44397 5.7043 1.67032 5.18377 1.04971C4.66325 0.428576 3.93991 0.0769678 3.19168 0.0113061C2.44346 -0.0543556 1.67034 0.165399 1.0492 0.685927C0.428066 1.20646 0.0769872 1.92979 0.0113254 2.67802C-0.0543363 3.42624 0.164889 4.19936 0.685417 4.8205ZM2.78712 4.61239C2.3582 4.57479 1.94305 4.37304 1.6444 4.01667C1.34574 3.6603 1.21971 3.21655 1.25731 2.7871C1.29491 2.35818 1.49666 1.94356 1.85303 1.64438C2.2094 1.34572 2.65315 1.21969 3.08207 1.25729C3.51152 1.29542 3.92614 1.49664 4.22532 1.85301C4.52398 2.20938 4.65001 2.65313 4.61241 3.08258C4.57428 3.5115 4.37306 3.92665 4.01669 4.22531C3.66032 4.52396 3.21657 4.64999 2.78712 4.61239Z" fill="#FFC403"/>
<path d="M20.5895 8.27939L20.599 2.15485L11.3937 2.20886V2.20674H5.46558V3.45749H11.3937L11.3963 3.45537L19.3694 3.40824L19.343 8.29369L20.5895 8.27939Z" fill="#FFC403"/>
<path d="M31.8187 12.2975C32.1254 12.2975 32.3741 12.0485 32.3741 11.7415C32.3741 11.4344 32.1254 11.1855 31.8187 11.1855C31.5119 11.1855 31.2632 11.4344 31.2632 11.7415C31.2632 12.0485 31.5119 12.2975 31.8187 12.2975Z" fill="#FFC403"/>
<path d="M34.501 12.2975C34.8078 12.2975 35.0565 12.0485 35.0565 11.7415C35.0565 11.4344 34.8078 11.1855 34.501 11.1855C34.1943 11.1855 33.9456 11.4344 33.9456 11.7415C33.9456 12.0485 34.1943 12.2975 34.501 12.2975Z" fill="#FFC403"/>
<path d="M37.1837 12.2975C37.4904 12.2975 37.7391 12.0485 37.7391 11.7415C37.7391 11.4344 37.4904 11.1855 37.1837 11.1855C36.8769 11.1855 36.6282 11.4344 36.6282 11.7415C36.6282 12.0485 36.8769 12.2975 37.1837 12.2975Z" fill="#FFC403"/>
</svg>
