<svg width="93" height="30" viewBox="0 0 93 30" fill="none" xmlns="http://www.w3.org/2000/svg">
<path d="M24.2359 17.2969C24.1336 17.4 24.0127 17.4469 23.8639 17.4469C23.7151 17.4469 23.5849 17.4 23.4826 17.2969C23.3803 17.1844 23.3245 17.0625 23.3245 16.9125V13.0875C23.3245 12.9375 23.3803 12.8156 23.4826 12.7031C23.5849 12.6 23.7151 12.5531 23.8639 12.5531C24.0127 12.5531 24.1336 12.6 24.2359 12.7031C24.3382 12.8156 24.394 12.9375 24.394 13.0875V16.9125C24.394 17.0625 24.3382 17.1844 24.2359 17.2969Z" fill="#152A3D"/>
<path d="M33.2569 12.7031C33.3592 12.6 33.4894 12.5531 33.6382 12.5531C33.787 12.5531 33.9172 12.6 34.0195 12.7031C34.1218 12.8156 34.1776 12.9375 34.1776 13.0875V16.3594C34.1776 16.6688 34.0753 16.9219 33.8707 17.1375C33.6661 17.3438 33.4057 17.4469 33.1081 17.4469C32.9965 17.4469 32.8942 17.4375 32.7919 17.4C32.6989 17.3719 32.6059 17.3344 32.5222 17.2781L27.4165 14.1375C27.277 14.0531 27.1561 13.9875 27.0631 13.9406C26.9701 13.8844 26.8957 13.8656 26.8399 13.8656C26.7283 13.8656 26.6539 13.9313 26.626 14.0813C26.5981 14.2219 26.5795 14.4281 26.5795 14.7V16.9125C26.5795 17.0625 26.533 17.1844 26.4214 17.2969C26.3191 17.4 26.1982 17.4469 26.0494 17.4469C25.9006 17.4469 25.7704 17.4 25.6681 17.2969C25.5658 17.1844 25.51 17.0625 25.51 16.9125V13.6406C25.51 13.3313 25.6123 13.0781 25.8169 12.8625C26.0215 12.6563 26.2726 12.5531 26.5795 12.5531C26.6818 12.5531 26.7841 12.5625 26.8864 12.5906C26.9887 12.6281 27.0817 12.6656 27.1561 12.7219L32.2711 15.8625C32.4106 15.9469 32.5222 16.0125 32.6152 16.0594C32.7082 16.1063 32.7919 16.1344 32.8477 16.1344C32.9593 16.1344 33.0244 16.0594 33.0616 15.9188C33.0895 15.7781 33.1081 15.5719 33.1081 15.3V13.0875C33.1081 12.9375 33.1546 12.8156 33.2569 12.7031Z" fill="#152A3D"/>
<path d="M35.2842 13.0875C35.2842 12.9375 35.34 12.8156 35.4423 12.7031C35.5446 12.6 35.6748 12.5531 35.8236 12.5531H43.7286C43.8774 12.5531 44.0076 12.6 44.1099 12.7031C44.2122 12.8156 44.268 12.9375 44.268 13.0875C44.268 13.2375 44.2122 13.3688 44.1099 13.4719C44.0076 13.575 43.8774 13.6313 43.7286 13.6313H35.8236C35.6748 13.6313 35.5446 13.575 35.4423 13.4719C35.34 13.3688 35.2842 13.2375 35.2842 13.0875ZM35.2842 14.9625C35.2842 14.7656 35.3493 14.625 35.4609 14.5594C35.5725 14.4938 35.7585 14.4563 36.0003 14.4563H43.4868C43.6356 14.4563 43.7565 14.5125 43.8588 14.6156C43.9704 14.7188 44.0169 14.85 44.0169 15C44.0169 15.15 43.9704 15.2813 43.8588 15.3844C43.7565 15.4875 43.6356 15.5344 43.4868 15.5344H36.363V16.9125C36.363 17.0625 36.3072 17.1844 36.2049 17.2969C36.1026 17.4 35.9724 17.4469 35.8236 17.4469C35.6748 17.4469 35.5446 17.4 35.4423 17.2969C35.34 17.1844 35.2842 17.0625 35.2842 16.9125V14.9625Z" fill="#152A3D"/>
<path d="M54.4515 15C54.4515 15.2813 54.405 15.5719 54.312 15.8625C54.219 16.1438 54.0888 16.4063 53.9121 16.65C53.7261 16.8844 53.5122 17.0719 53.2611 17.2219C53.01 17.3719 52.7217 17.4469 52.4055 17.4469H47.3184C47.0115 17.4375 46.7418 17.3531 46.5093 17.1938C46.2675 17.0438 46.0629 16.8469 45.8955 16.6219C45.7281 16.3875 45.6072 16.125 45.5142 15.8438C45.4212 15.5531 45.384 15.2813 45.384 15C45.384 14.7188 45.4212 14.4281 45.5142 14.1375C45.6072 13.8469 45.7467 13.5844 45.9234 13.35C46.1001 13.1156 46.3233 12.9281 46.5744 12.7781C46.8255 12.6281 47.1138 12.5531 47.43 12.5531H52.5171C52.8147 12.5625 53.0937 12.6469 53.3262 12.8063C53.568 12.9563 53.7726 13.1531 53.94 13.3781C54.1074 13.6125 54.2283 13.875 54.3213 14.1563C54.4143 14.4375 54.4515 14.7188 54.4515 15ZM52.7961 16.2281C52.9542 16.1344 53.0844 16.0219 53.1774 15.8906C53.2704 15.75 53.3355 15.6094 53.3634 15.4406C53.4006 15.2813 53.4192 15.1313 53.4192 15C53.4192 14.8688 53.4006 14.7188 53.3634 14.5594C53.3355 14.3906 53.2704 14.25 53.1774 14.1094C53.0844 13.9781 52.9542 13.8656 52.7961 13.7719C52.6287 13.6781 52.4241 13.6313 52.173 13.6313H47.6625C47.4021 13.6313 47.1975 13.6781 47.0394 13.7719C46.872 13.8656 46.7511 13.9781 46.6581 14.1094C46.5651 14.25 46.5 14.3906 46.4628 14.5594C46.4349 14.7188 46.4163 14.8688 46.4163 15C46.4163 15.1313 46.4349 15.2813 46.4628 15.4406C46.5 15.6094 46.5651 15.75 46.6581 15.8906C46.7511 16.0219 46.872 16.1344 47.0394 16.2281C47.1975 16.3219 47.4021 16.3688 47.6625 16.3688H52.173C52.4241 16.3688 52.6287 16.3219 52.7961 16.2281Z" fill="#152A3D"/>
<path d="M62.7844 12.5531C62.989 12.5531 63.1843 12.5906 63.3703 12.6656C63.547 12.75 63.7144 12.8531 63.8446 12.9844C63.9841 13.125 64.0957 13.2844 64.1701 13.4625C64.2538 13.6406 64.291 13.8375 64.291 14.0438C64.291 14.25 64.2538 14.4469 64.1701 14.625C64.0957 14.8125 63.9841 14.9625 63.8446 15.1031C63.7144 15.2344 63.547 15.3375 63.3703 15.4219C63.1843 15.4969 62.989 15.5344 62.7844 15.5344H56.6371V16.9125C56.6371 17.0625 56.5813 17.1844 56.479 17.2969C56.3674 17.4 56.2465 17.4469 56.107 17.4469C55.9582 17.4469 55.828 17.4 55.7257 17.2969C55.6234 17.1844 55.5676 17.0625 55.5676 16.9125V13.0875C55.5676 12.9375 55.6234 12.8156 55.7257 12.7031C55.828 12.6 55.9582 12.5531 56.107 12.5531H62.7844ZM56.6371 13.6313V14.4563H62.8309C62.9425 14.4563 63.0355 14.4188 63.1192 14.3438C63.2122 14.2594 63.2494 14.1656 63.2494 14.0438C63.2494 13.9313 63.2122 13.8375 63.1192 13.7531C63.0355 13.6688 62.9425 13.6313 62.8309 13.6313H56.6371Z" fill="#152A3D"/>
<path d="M74.4838 15C74.4838 15.2813 74.4373 15.5719 74.3443 15.8625C74.2513 16.1438 74.1118 16.4063 73.9351 16.65C73.7584 16.8844 73.5352 17.0719 73.2841 17.2219C73.033 17.3719 72.7447 17.4469 72.4285 17.4469H67.3414C67.0345 17.4375 66.7648 17.3531 66.5323 17.1938C66.2905 17.0438 66.0859 16.8469 65.9185 16.6219C65.7511 16.3875 65.6302 16.125 65.5372 15.8438C65.4442 15.5531 65.407 15.2813 65.407 15C65.407 14.7188 65.4535 14.4281 65.5465 14.1375C65.6395 13.8469 65.7697 13.5844 65.9464 13.35C66.1324 13.1156 66.3463 12.9281 66.5974 12.7781C66.8485 12.6281 67.1368 12.5531 67.453 12.5531H72.5401C72.847 12.5625 73.1167 12.6469 73.3492 12.8063C73.591 12.9563 73.7956 13.1531 73.963 13.3781C74.1304 13.6125 74.2606 13.875 74.3443 14.1563C74.4373 14.4375 74.4838 14.7188 74.4838 15ZM72.8191 16.2281C72.9865 16.1344 73.1074 16.0219 73.2004 15.8906C73.2934 15.75 73.3585 15.6094 73.3957 15.4406C73.4236 15.2813 73.4422 15.1313 73.4422 15C73.4422 14.8688 73.4236 14.7188 73.3957 14.5594C73.3585 14.3906 73.2934 14.25 73.2004 14.1094C73.1074 13.9781 72.9865 13.8656 72.8191 13.7719C72.6517 13.6781 72.4471 13.6313 72.196 13.6313H67.6855C67.4251 13.6313 67.2205 13.6781 67.0624 13.7719C66.895 13.8656 66.7741 13.9781 66.6811 14.1094C66.5881 14.25 66.523 14.3906 66.4951 14.5594C66.4579 14.7188 66.4393 14.8688 66.4393 15C66.4393 15.1313 66.4579 15.2813 66.4951 15.4406C66.523 15.6094 66.5881 15.75 66.6811 15.8906C66.7741 16.0219 66.895 16.1344 67.0624 16.2281C67.2205 16.3219 67.4251 16.3688 67.6855 16.3688H72.196C72.4471 16.3688 72.6517 16.3219 72.8191 16.2281Z" fill="#152A3D"/>
<path d="M76.5299 17.3344C76.3439 17.25 76.1858 17.1469 76.0463 17.0156C75.9068 16.875 75.7952 16.7156 75.7208 16.5375C75.6371 16.3594 75.5906 16.1625 75.5906 15.9563V13.0875C75.5906 12.9375 75.6464 12.8156 75.7487 12.7031C75.851 12.6 75.9812 12.5531 76.13 12.5531C76.2695 12.5531 76.3997 12.6 76.502 12.7031C76.6136 12.8156 76.6694 12.9375 76.6694 13.0875V15.9563C76.6694 16.0688 76.7066 16.1625 76.7903 16.2469C76.874 16.3313 76.9763 16.3688 77.0879 16.3688H83.7746C83.9234 16.3688 84.0536 16.425 84.1559 16.5281C84.2582 16.6313 84.314 16.7625 84.314 16.9125C84.314 17.0625 84.2582 17.1844 84.1559 17.2969C84.0536 17.4 83.9234 17.4469 83.7746 17.4469H77.1251C76.9112 17.4469 76.7159 17.4094 76.5299 17.3344Z" fill="#152A3D"/>
<path d="M88.8988 17.2969C88.7965 17.4 88.6663 17.4469 88.5175 17.4469C88.3687 17.4469 88.2385 17.4 88.1362 17.2969C88.0339 17.1844 87.9781 17.0625 87.9781 16.9125V15.5344C87.6991 15.5344 87.4201 15.4969 87.1597 15.4313C86.89 15.3469 86.611 15.2344 86.3134 15.075C86.0251 14.9156 85.7089 14.7 85.3741 14.4469C85.0393 14.1938 84.6673 13.8844 84.2488 13.5188C84.1837 13.4625 84.1372 13.3969 84.1 13.3219C84.0535 13.2469 84.0349 13.1719 84.0349 13.0875C84.0349 12.9375 84.0907 12.8156 84.193 12.7031C84.2953 12.6 84.4255 12.5531 84.5743 12.5531C84.6487 12.5531 84.7138 12.5625 84.7696 12.5906C84.8254 12.6281 84.8905 12.6656 84.9463 12.7031C85.4299 13.125 85.8205 13.4531 86.146 13.6875C86.4715 13.9219 86.7598 14.1 87.0202 14.2125C87.2713 14.325 87.5224 14.3906 87.7456 14.4188C87.9781 14.4469 88.2385 14.4563 88.5268 14.4563C88.8151 14.4563 89.0755 14.4469 89.2987 14.4281C89.5219 14.4 89.7544 14.3344 90.0148 14.2219C90.2659 14.1094 90.5542 13.9406 90.8797 13.7063C91.1959 13.4625 91.6051 13.1344 92.0887 12.7031C92.2096 12.6 92.3398 12.5531 92.4607 12.5531C92.6095 12.5531 92.7397 12.6 92.842 12.7031C92.9443 12.8156 93.0001 12.9375 93.0001 13.0875C93.0001 13.1719 92.9815 13.2469 92.935 13.3219C92.8978 13.3969 92.8513 13.4625 92.7862 13.5188C92.377 13.875 92.005 14.1844 91.6609 14.4469C91.3168 14.7 91.0006 14.9156 90.6937 15.075C90.3961 15.2344 90.1078 15.3469 89.8381 15.4313C89.5684 15.4969 89.308 15.5344 89.0569 15.5344V16.9125C89.0569 17.0625 89.0011 17.1844 88.8988 17.2969Z" fill="#152A3D"/>
<path d="M19.781 10.4156H11.6435L9.02094 7.77188L1.80414 0.496875L1.72974 0.421875H9.55104L9.56034 0.440625L11.7644 2.6625L19.781 10.4156Z" fill="#07DA62"/>
<path d="M9.2256 10.4156H0V1.14374L9.2256 10.4156Z" fill="#08F26E"/>
<path d="M9.9417 12.15V29.5781L7.7748 25.7812L0 12.15H9.9417Z" fill="#059042"/>
<path d="M19.7903 12.15L16.5818 15.3844L15.2798 16.6969L11.6621 20.3531V12.15H19.7903Z" fill="#05C157"/>
</svg>
